# File created by Blade
# Date/Time:  Wed Apr 08 17:12:12 2015
# Frame Rate: 120.000 fps
#------------------------------------------------------
:FULLY-SPECIFIED
:DEGREES
1426
root 5.871313 38.214568 5.854263 119.722782 -66.887232 -88.716265
Spine -18.527535 5.028514 10.904193
Head 0.012898 2.998824 18.772044
LeftShoulder -8.322555 22.643925 17.466082
LeftArm 16.236426 35.940307 -74.891124
LeftForeArm 32.083870 -0.000000 36.381634
LeftHand -8.826399 -0.000000 -17.219838
LeftHandThumb1 -26.253704 0.000000 33.147579
RightShoulder -36.593530 -50.651432 22.553774
RightArm 53.721524 -14.330463 52.911382
RightForeArm 25.765335 0.000000 12.196897
RightHand -1.669321 -0.000000 8.478262
RightHandThumb1 -24.326973 -0.000000 -32.862282
LeftUpLeg -33.539763 18.949326 9.202703
LeftLeg 13.135520 -0.000000 -0.000000
LeftFoot -8.970630 4.313925 -12.049905
LeftToeBase 5.659431 -0.000000 -0.000000
RightUpLeg -79.090347 -25.821400 -0.577760
RightLeg 138.088815 -0.000000 -0.000000
RightFoot 38.032592 4.849813 28.154903
RightToeBase -8.901279 -0.000000 0.000000
1427
root 5.867722 38.200290 5.858262 118.884542 -67.118604 -87.917152
Spine -18.704401 4.866435 10.908451
Head 0.212327 2.970510 18.486411
LeftShoulder -8.338966 22.689377 17.345299
LeftArm 16.351724 35.951945 -74.852553
LeftForeArm 32.107682 0.000000 36.357210
LeftHand -8.878195 -0.000000 -17.131433
LeftHandThumb1 -26.253704 0.000000 33.147579
RightShoulder -36.595093 -50.719425 22.419052
RightArm 53.766953 -14.491698 52.838991
RightForeArm 25.452770 -0.000000 12.415499
RightHand -1.736206 -0.000000 8.308092
RightHandThumb1 -24.326973 -0.000000 -32.862282
LeftUpLeg -33.652358 18.903670 8.929066
LeftLeg 13.218123 -0.000000 -0.000000
LeftFoot -8.938460 4.048687 -11.955554
LeftToeBase 5.747003 -0.000000 -0.000000
RightUpLeg -80.083580 -25.949437 0.430169
RightLeg 137.760898 -0.000000 -0.000000
RightFoot 37.956216 4.343986 28.690058
RightToeBase -8.838600 -0.000000 0.000000
1428
root 5.866445 38.187156 5.866884 118.124718 -67.355765 -87.176417
Spine -18.906426 4.730423 10.899078
Head 0.448573 2.953774 18.185633
LeftShoulder -8.354578 22.777962 17.189002
LeftArm 16.497558 35.913669 -74.803332
LeftForeArm 32.128253 -0.000000 36.325891
LeftHand -8.920433 -0.000000 -17.140018
LeftHandThumb1 -26.253704 0.000000 33.147579
RightShoulder -36.594462 -50.797270 22.268236
RightArm 53.824333 -14.682400 52.729666
RightForeArm 25.252239 0.000000 12.627795
RightHand -1.737454 -0.000000 8.403410
RightHandThumb1 -24.326973 -0.000000 -32.862282
LeftUpLeg -33.734873 18.842863 8.664208
LeftLeg 13.230194 -0.000000 -0.000000
LeftFoot -8.868186 3.734987 -11.970761
LeftToeBase 5.845057 -0.000000 -0.000000
RightUpLeg -81.077318 -26.029542 1.396146
RightLeg 137.494823 -0.000000 -0.000000
RightFoot 37.702863 4.272228 28.850147
RightToeBase -8.351640 -0.000000 0.000000
1429
root 5.864035 38.174388 5.872670 117.416805 -67.569638 -86.501761
Spine -19.083226 4.614392 10.894540
Head 0.691175 2.959900 17.889767
LeftShoulder -8.402871 22.838375 17.028246
LeftArm 16.608621 35.850936 -74.791108
LeftForeArm 32.114011 -0.000000 36.252592
LeftHand -8.980112 -0.000000 -17.099523
LeftHandThumb1 -26.253704 0.000000 33.147579
RightShoulder -36.609886 -50.881935 22.149876
RightArm 53.887247 -14.852876 52.599053
RightForeArm 25.023352 -0.000000 12.849361
RightHand -1.748173 -0.000000 8.465667
RightHandThumb1 -24.326973 -0.000000 -32.862282
LeftUpLeg -33.793885 18.744016 8.453351
LeftLeg 13.273055 -0.000000 -0.000000
LeftFoot -8.835997 3.494441 -11.979010
LeftToeBase 5.981895 -0.000000 -0.000000
RightUpLeg -82.042046 -26.026460 2.329419
RightLeg 137.253865 -0.000000 -0.000000
RightFoot 37.563389 4.270677 28.920402
RightToeBase -8.411677 -0.000000 0.000000
1430
root 5.863079 38.163839 5.872672 116.728425 -67.717045 -85.847728
Spine -19.250539 4.512886 10.944004
Head 0.943245 2.998023 17.600018
LeftShoulder -8.458348 22.897165 16.872820
LeftArm 16.672282 35.704321 -74.853550
LeftForeArm 32.061003 0.000000 36.153934
LeftHand -9.007255 -0.000000 -17.053352
LeftHandThumb1 -26.253704 0.000000 33.147579
RightShoulder -36.606057 -50.940282 22.007791
RightArm 53.938913 -15.055482 52.416649
RightForeArm 24.797109 0.000000 13.116350
RightHand -1.855496 0.000000 8.416619
RightHandThumb1 -24.326973 -0.000000 -32.862282
LeftUpLeg -33.859210 18.619879 8.339731
LeftLeg 13.363385 -0.000000 -0.000000
LeftFoot -8.811941 3.332519 -11.942021
LeftToeBase 5.982799 -0.000000 -0.000000
RightUpLeg -83.017041 -25.875122 3.382066
RightLeg 137.070539 -0.000000 -0.000000
RightFoot 37.257442 4.255758 28.821243
RightToeBase -8.577785 -0.000000 0.000000
1431
root 5.861720 38.153930 5.870148 116.081206 -67.847345 -85.283395
Spine -19.353525 4.456798 10.964932
Head 1.186809 3.018100 17.356905
LeftShoulder -8.490040 22.947905 16.741602
LeftArm 16.708159 35.465108 -74.977934
LeftForeArm 32.091076 0.000000 36.050315
LeftHand -8.986018 -0.000000 -17.006209
LeftHandThumb1 -26.253704 0.000000 33.147579
RightShoulder -36.635817 -50.994043 21.934071
RightArm 54.004229 -15.221035 52.227324
RightForeArm 24.591858 -0.000000 13.348718
RightHand -1.909677 -0.000000 8.419305
RightHandThumb1 -24.326973 -0.000000 -32.862282
LeftUpLeg -33.868219 18.488156 8.264947
LeftLeg 13.465920 -0.000000 -0.000000
LeftFoot -8.813157 3.221478 -11.914243
LeftToeBase 5.975965 -0.000000 -0.000000
RightUpLeg -83.917031 -25.666799 4.366514
RightLeg 136.895724 -0.000000 -0.000000
RightFoot 37.149014 4.258413 28.771079
RightToeBase -9.171562 -0.000000 0.000000
1432
root 5.860009 38.144250 5.866319 115.448089 -67.988885 -84.794772
Spine -19.368861 4.390225 10.956514
Head 1.400511 3.026388 17.153847
LeftShoulder -8.548075 23.010326 16.595145
LeftArm 16.774696 35.225822 -75.066288
LeftForeArm 32.103119 -0.000000 35.959074
LeftHand -9.095428 -0.000000 -16.851502
LeftHandThumb1 -26.253704 0.000000 33.147579
RightShoulder -36.615269 -50.995639 21.835519
RightArm 54.022253 -15.384258 52.064315
RightForeArm 24.432015 -0.000000 13.613049
RightHand -1.914978 -0.000000 8.508432
RightHandThumb1 -24.326973 -0.000000 -32.862282
LeftUpLeg -33.795380 18.339595 8.209683
LeftLeg 13.548370 -0.000000 -0.000000
LeftFoot -8.795414 3.109622 -11.935363
LeftToeBase 5.951867 -0.000000 -0.000000
RightUpLeg -84.717480 -25.410957 5.246604
RightLeg 136.760236 -0.000000 -0.000000
RightFoot 37.142431 4.162065 29.030983
RightToeBase -9.227630 -0.000000 0.000000
